<?xml version="1.0" standalone="no"?>
<!DOCTYPE svg PUBLIC "-//W3C//DTD SVG 20010904//EN"
 "http://www.w3.org/TR/2001/REC-SVG-20010904/DTD/svg10.dtd">
<svg version="1.0" xmlns="http://www.w3.org/2000/svg"
 width="256.000000pt" height="256.000000pt" viewBox="0 0 256.000000 256.000000"
 preserveAspectRatio="xMidYMid meet">

<g transform="translate(0.000000,256.000000) scale(0.100000,-0.100000)"
fill="#7044c4" stroke="none">
<path d="M761 2284 c-162 -43 -285 -177 -311 -341 -13 -77 -13 -1290 0 -1367
33 -203 212 -356 416 -356 l34 0 0 130 c0 124 -1 130 -20 130 -63 0 -156 74
-189 150 -21 50 -22 55 -19 643 3 587 3 592 25 633 36 68 127 134 184 134 18
0 19 9 19 130 l0 130 -42 -1 c-24 0 -67 -7 -97 -15z"/>
<path d="M1670 2170 c0 -121 1 -130 19 -130 57 0 148 -66 184 -134 22 -41 22
-46 25 -624 2 -377 -1 -596 -8 -621 -22 -81 -108 -166 -181 -177 l-39 -7 0
-128 0 -129 34 0 c204 0 383 153 416 356 13 77 13 1290 0 1367 -32 200 -216
357 -415 357 l-35 0 0 -130z"/>
</g>
</svg>
